<svg version="1.2" xmlns="http://www.w3.org/2000/svg" viewBox="0 0 32 31" width="22" height="21">
	<title>bitcoin-svgrepo-com-svg</title>
	<style>
		.s0 { fill: #f7931a } 
	</style>
	<g id="SVGRepo_bgCarrier">
	</g>
	<g id="SVGRepo_tracerCarrier">
	</g>
	<g id="SVGRepo_iconCarrier">
		<path id="Layer" fill-rule="evenodd" class="s0" d="m32.3 15.1c0 8.9-7.3 16.2-16.2 16.2-8.9 0-16.1-7.3-16.1-16.2 0-8.9 7.2-16.1 16.1-16.1 8.9 0 16.2 7.2 16.2 16.1zm-11.6-8.9l-1.7-0.4-0.8 2.8q-0.7-0.2-1.4-0.3l0.7-2.9-1.7-0.4-0.8 2.9-3.6-0.9-0.4 1.9c0 0 1.3 0.3 1.3 0.3 0.7 0.2 0.8 0.7 0.8 1.1l-2 7.9c-0.1 0.2-0.3 0.6-0.8 0.4 0 0.1-1.3-0.3-1.3-0.3l-0.9 2 3.6 0.9-0.8 3 1.8 0.4 0.8-2.9q0.7 0.2 1.4 0.4l-0.8 2.9 1.8 0.4 0.8-2.9c3 0.6 5.3 0.3 6.2-2.4 0.5-1.9 0-3.5-1.6-4.3 1.2-0.3 2-1 2.3-2.6 0.3-2.1-1.4-3.3-3.6-4.1zm-5.3 7.7l0.9-3.5q0.2 0 0.4 0.1c1.2 0.2 3.8 0.8 3.3 2.7-0.4 1.8-3.1 1.1-4.3 0.8q-0.1 0-0.3-0.1zm-1.1 5.8q-0.1-0.1-0.3-0.1l1-3.9q0.2 0 0.4 0.1c1.5 0.3 4.6 1 4.1 3.1-0.5 2-3.7 1.2-5.2 0.8z"/>
	</g>
</svg>